<svg xmlns="http://www.w3.org/2000/svg" xmlns:xlink="http://www.w3.org/1999/xlink" xmlns:inkscape="http://www.inkscape.org/namespaces/inkscape" version="1.1" width="507.10337" height="325.46803" viewBox="0 0 507.10337 325.46803">
<defs>
<clipPath id="clip_0">
<path transform="matrix(1,0,0,-1,0,325.46803)" d="M53.503366 41.068017H499.90336V318.26805H53.503366Z"/>
</clipPath>
</defs>
<path transform="matrix(1,0,0,-1,0,325.46803)" d="M0 0H507.10337V325.46803H0Z" fill="#ffffff"/>
<path transform="matrix(1,0,0,-1,0,325.46803)" d="M53.503366 41.068017H499.90336V318.268H53.503366Z" fill="#ffffff"/>
<path transform="matrix(1,0,0,-1,0,325.46803)" d="M63.38868 41.068017V35.068017" fill="#262626"/>
<path transform="matrix(1,0,0,-1,0,325.46803)" stroke-width="1.25" stroke-linecap="butt" stroke-linejoin="round" fill="none" stroke="#262626" d="M63.38868 41.068017V35.068017"/>
<text fill="#262626" xml:space="preserve" transform="matrix(1 0 -0 1 0 325.46803)" font-size="10.958904" font-family="CMR10"><tspan y="-23.95767" x="60.648946">0</tspan></text>
<path transform="matrix(1,0,0,-1,0,325.46803)" d="M115.41665 41.068017V35.068017" fill="#262626"/>
<path transform="matrix(1,0,0,-1,0,325.46803)" stroke-width="1.25" stroke-linecap="butt" stroke-linejoin="round" fill="none" stroke="#262626" d="M115.41665 41.068017V35.068017"/>
<text fill="#262626" xml:space="preserve" transform="matrix(1 0 -0 1 0 325.46803)" font-size="10.958904" font-family="CMR10"><tspan y="-23.95767" x="112.67692">5</tspan></text>
<path transform="matrix(1,0,0,-1,0,325.46803)" d="M167.44463 41.068017V35.068017" fill="#262626"/>
<path transform="matrix(1,0,0,-1,0,325.46803)" stroke-width="1.25" stroke-linecap="butt" stroke-linejoin="round" fill="none" stroke="#262626" d="M167.44463 41.068017V35.068017"/>
<text fill="#262626" xml:space="preserve" transform="matrix(1 0 -0 1 0 325.46803)" font-size="10.958904" font-family="CMR10"><tspan y="-23.95767" x="161.96515 167.4446">10</tspan></text>
<path transform="matrix(1,0,0,-1,0,325.46803)" d="M219.4726 41.068017V35.068017" fill="#262626"/>
<path transform="matrix(1,0,0,-1,0,325.46803)" stroke-width="1.25" stroke-linecap="butt" stroke-linejoin="round" fill="none" stroke="#262626" d="M219.4726 41.068017V35.068017"/>
<text fill="#262626" xml:space="preserve" transform="matrix(1 0 -0 1 0 325.46803)" font-size="10.958904" font-family="CMR10"><tspan y="-23.95767" x="213.99314 219.47258">15</tspan></text>
<path transform="matrix(1,0,0,-1,0,325.46803)" d="M271.50059 41.068017V35.068017" fill="#262626"/>
<path transform="matrix(1,0,0,-1,0,325.46803)" stroke-width="1.25" stroke-linecap="butt" stroke-linejoin="round" fill="none" stroke="#262626" d="M271.50059 41.068017V35.068017"/>
<text fill="#262626" xml:space="preserve" transform="matrix(1 0 -0 1 0 325.46803)" font-size="10.958904" font-family="CMR10"><tspan y="-23.95767" x="266.0211 271.50056">20</tspan></text>
<path transform="matrix(1,0,0,-1,0,325.46803)" d="M323.52854 41.068017V35.068017" fill="#262626"/>
<path transform="matrix(1,0,0,-1,0,325.46803)" stroke-width="1.25" stroke-linecap="butt" stroke-linejoin="round" fill="none" stroke="#262626" d="M323.52854 41.068017V35.068017"/>
<text fill="#262626" xml:space="preserve" transform="matrix(1 0 -0 1 0 325.46803)" font-size="10.958904" font-family="CMR10"><tspan y="-23.95767" x="318.04908 323.52854">25</tspan></text>
<path transform="matrix(1,0,0,-1,0,325.46803)" d="M375.55653 41.068017V35.068017" fill="#262626"/>
<path transform="matrix(1,0,0,-1,0,325.46803)" stroke-width="1.25" stroke-linecap="butt" stroke-linejoin="round" fill="none" stroke="#262626" d="M375.55653 41.068017V35.068017"/>
<text fill="#262626" xml:space="preserve" transform="matrix(1 0 -0 1 0 325.46803)" font-size="10.958904" font-family="CMR10"><tspan y="-23.95767" x="370.07707 375.55653">30</tspan></text>
<path transform="matrix(1,0,0,-1,0,325.46803)" d="M427.58448 41.068017V35.068017" fill="#262626"/>
<path transform="matrix(1,0,0,-1,0,325.46803)" stroke-width="1.25" stroke-linecap="butt" stroke-linejoin="round" fill="none" stroke="#262626" d="M427.58448 41.068017V35.068017"/>
<text fill="#262626" xml:space="preserve" transform="matrix(1 0 -0 1 0 325.46803)" font-size="10.958904" font-family="CMR10"><tspan y="-23.95767" x="422.105 427.58448">35</tspan></text>
<path transform="matrix(1,0,0,-1,0,325.46803)" d="M479.61247 41.068017V35.068017" fill="#262626"/>
<path transform="matrix(1,0,0,-1,0,325.46803)" stroke-width="1.25" stroke-linecap="butt" stroke-linejoin="round" fill="none" stroke="#262626" d="M479.61247 41.068017V35.068017"/>
<text fill="#262626" xml:space="preserve" transform="matrix(1 0 -0 1 0 325.46803)" font-size="10.958904" font-family="CMR10"><tspan y="-23.95767" x="474.133 479.61247">40</tspan></text>
<text fill="#262626" xml:space="preserve" transform="matrix(1 0 -0 1 0 325.46803)" font-size="11.955168" font-family="CMR12"><tspan y="-9.524596" x="254.43157 258.65174 263.1947 268.3952 272.93818 278.78425 283.3272 286.56706 292.41313">Iteration</tspan></text>
<path transform="matrix(1,0,0,-1,0,325.46803)" d="M53.503366 67.17514H47.503366" fill="#262626"/>
<path transform="matrix(1,0,0,-1,0,325.46803)" stroke-width="1.25" stroke-linecap="butt" stroke-linejoin="round" fill="none" stroke="#262626" d="M53.503366 67.17514H47.503366"/>
<text fill="#262626" xml:space="preserve" transform="matrix(1 0 -0 1 0 325.46803)" font-size="10.958904" font-family="CMR10"><tspan y="-63.36997" x="21.826775 27.306227">10</tspan></text>
<text fill="#262626" xml:space="preserve" transform="matrix(1 0 -0 1 0 325.46803)" font-size="7.6711995" font-family="CMSY7" font-style="italic"><tspan y="-67.34686" x="32.78571">&#x2212;</tspan></text>
<text fill="#262626" xml:space="preserve" transform="matrix(1 0 -0 1 0 325.46803)" font-size="7.6711995" font-family="CMR7"><tspan y="-67.34686" x="39.635026">1</tspan></text>
<path transform="matrix(1,0,0,-1,0,325.46803)" d="M53.503366 172.5158H47.503366" fill="#262626"/>
<path transform="matrix(1,0,0,-1,0,325.46803)" stroke-width="1.25" stroke-linecap="butt" stroke-linejoin="round" fill="none" stroke="#262626" d="M53.503366 172.5158H47.503366"/>
<text fill="#262626" xml:space="preserve" transform="matrix(1 0 -0 1 0 325.46803)" font-size="10.958904" font-family="CMR10"><tspan y="-168.71063" x="28.67609 34.15554">10</tspan></text>
<text fill="#262626" xml:space="preserve" transform="matrix(1 0 -0 1 0 325.46803)" font-size="7.6711995" font-family="CMR7"><tspan y="-172.68753" x="39.635026">0</tspan></text>
<path transform="matrix(1,0,0,-1,0,325.46803)" d="M53.503366 277.85646H47.503366" fill="#262626"/>
<path transform="matrix(1,0,0,-1,0,325.46803)" stroke-width="1.25" stroke-linecap="butt" stroke-linejoin="round" fill="none" stroke="#262626" d="M53.503366 277.85646H47.503366"/>
<text fill="#262626" xml:space="preserve" transform="matrix(1 0 -0 1 0 325.46803)" font-size="10.958904" font-family="CMR10"><tspan y="-274.05128" x="28.67609 34.15554">10</tspan></text>
<text fill="#262626" xml:space="preserve" transform="matrix(1 0 -0 1 0 325.46803)" font-size="7.6711995" font-family="CMR7"><tspan y="-278.02818" x="39.635026">1</tspan></text>
<path transform="matrix(1,0,0,-1,0,325.46803)" d="M53.503366 43.80545H49.503366" fill="#262626"/>
<path transform="matrix(1,0,0,-1,0,325.46803)" stroke-width="1" stroke-linecap="butt" stroke-linejoin="round" fill="none" stroke="#262626" d="M53.503366 43.80545H49.503366"/>
<path transform="matrix(1,0,0,-1,0,325.46803)" d="M53.503366 50.85767H49.503366" fill="#262626"/>
<path transform="matrix(1,0,0,-1,0,325.46803)" stroke-width="1" stroke-linecap="butt" stroke-linejoin="round" fill="none" stroke="#262626" d="M53.503366 50.85767H49.503366"/>
<path transform="matrix(1,0,0,-1,0,325.46803)" d="M53.503366 56.96658H49.503366" fill="#262626"/>
<path transform="matrix(1,0,0,-1,0,325.46803)" stroke-width="1" stroke-linecap="butt" stroke-linejoin="round" fill="none" stroke="#262626" d="M53.503366 56.96658H49.503366"/>
<path transform="matrix(1,0,0,-1,0,325.46803)" d="M53.503366 62.35502H49.503366" fill="#262626"/>
<path transform="matrix(1,0,0,-1,0,325.46803)" stroke-width="1" stroke-linecap="butt" stroke-linejoin="round" fill="none" stroke="#262626" d="M53.503366 62.35502H49.503366"/>
<path transform="matrix(1,0,0,-1,0,325.46803)" d="M53.503366 98.88584H49.503366" fill="#262626"/>
<path transform="matrix(1,0,0,-1,0,325.46803)" stroke-width="1" stroke-linecap="butt" stroke-linejoin="round" fill="none" stroke="#262626" d="M53.503366 98.88584H49.503366"/>
<path transform="matrix(1,0,0,-1,0,325.46803)" d="M53.503366 117.43541H49.503366" fill="#262626"/>
<path transform="matrix(1,0,0,-1,0,325.46803)" stroke-width="1" stroke-linecap="butt" stroke-linejoin="round" fill="none" stroke="#262626" d="M53.503366 117.43541H49.503366"/>
<path transform="matrix(1,0,0,-1,0,325.46803)" d="M53.503366 130.59654H49.503366" fill="#262626"/>
<path transform="matrix(1,0,0,-1,0,325.46803)" stroke-width="1" stroke-linecap="butt" stroke-linejoin="round" fill="none" stroke="#262626" d="M53.503366 130.59654H49.503366"/>
<path transform="matrix(1,0,0,-1,0,325.46803)" d="M53.503366 140.8051H49.503366" fill="#262626"/>
<path transform="matrix(1,0,0,-1,0,325.46803)" stroke-width="1" stroke-linecap="butt" stroke-linejoin="round" fill="none" stroke="#262626" d="M53.503366 140.8051H49.503366"/>
<path transform="matrix(1,0,0,-1,0,325.46803)" d="M53.503366 149.1461H49.503366" fill="#262626"/>
<path transform="matrix(1,0,0,-1,0,325.46803)" stroke-width="1" stroke-linecap="butt" stroke-linejoin="round" fill="none" stroke="#262626" d="M53.503366 149.1461H49.503366"/>
<path transform="matrix(1,0,0,-1,0,325.46803)" d="M53.503366 156.19832H49.503366" fill="#262626"/>
<path transform="matrix(1,0,0,-1,0,325.46803)" stroke-width="1" stroke-linecap="butt" stroke-linejoin="round" fill="none" stroke="#262626" d="M53.503366 156.19832H49.503366"/>
<path transform="matrix(1,0,0,-1,0,325.46803)" d="M53.503366 162.30724H49.503366" fill="#262626"/>
<path transform="matrix(1,0,0,-1,0,325.46803)" stroke-width="1" stroke-linecap="butt" stroke-linejoin="round" fill="none" stroke="#262626" d="M53.503366 162.30724H49.503366"/>
<path transform="matrix(1,0,0,-1,0,325.46803)" d="M53.503366 167.69568H49.503366" fill="#262626"/>
<path transform="matrix(1,0,0,-1,0,325.46803)" stroke-width="1" stroke-linecap="butt" stroke-linejoin="round" fill="none" stroke="#262626" d="M53.503366 167.69568H49.503366"/>
<path transform="matrix(1,0,0,-1,0,325.46803)" d="M53.503366 204.2265H49.503366" fill="#262626"/>
<path transform="matrix(1,0,0,-1,0,325.46803)" stroke-width="1" stroke-linecap="butt" stroke-linejoin="round" fill="none" stroke="#262626" d="M53.503366 204.2265H49.503366"/>
<path transform="matrix(1,0,0,-1,0,325.46803)" d="M53.503366 222.77606H49.503366" fill="#262626"/>
<path transform="matrix(1,0,0,-1,0,325.46803)" stroke-width="1" stroke-linecap="butt" stroke-linejoin="round" fill="none" stroke="#262626" d="M53.503366 222.77606H49.503366"/>
<path transform="matrix(1,0,0,-1,0,325.46803)" d="M53.503366 235.9372H49.503366" fill="#262626"/>
<path transform="matrix(1,0,0,-1,0,325.46803)" stroke-width="1" stroke-linecap="butt" stroke-linejoin="round" fill="none" stroke="#262626" d="M53.503366 235.9372H49.503366"/>
<path transform="matrix(1,0,0,-1,0,325.46803)" d="M53.503366 246.14575H49.503366" fill="#262626"/>
<path transform="matrix(1,0,0,-1,0,325.46803)" stroke-width="1" stroke-linecap="butt" stroke-linejoin="round" fill="none" stroke="#262626" d="M53.503366 246.14575H49.503366"/>
<path transform="matrix(1,0,0,-1,0,325.46803)" d="M53.503366 254.48676H49.503366" fill="#262626"/>
<path transform="matrix(1,0,0,-1,0,325.46803)" stroke-width="1" stroke-linecap="butt" stroke-linejoin="round" fill="none" stroke="#262626" d="M53.503366 254.48676H49.503366"/>
<path transform="matrix(1,0,0,-1,0,325.46803)" d="M53.503366 261.53898H49.503366" fill="#262626"/>
<path transform="matrix(1,0,0,-1,0,325.46803)" stroke-width="1" stroke-linecap="butt" stroke-linejoin="round" fill="none" stroke="#262626" d="M53.503366 261.53898H49.503366"/>
<path transform="matrix(1,0,0,-1,0,325.46803)" d="M53.503366 267.6479H49.503366" fill="#262626"/>
<path transform="matrix(1,0,0,-1,0,325.46803)" stroke-width="1" stroke-linecap="butt" stroke-linejoin="round" fill="none" stroke="#262626" d="M53.503366 267.6479H49.503366"/>
<path transform="matrix(1,0,0,-1,0,325.46803)" d="M53.503366 273.03636H49.503366" fill="#262626"/>
<path transform="matrix(1,0,0,-1,0,325.46803)" stroke-width="1" stroke-linecap="butt" stroke-linejoin="round" fill="none" stroke="#262626" d="M53.503366 273.03636H49.503366"/>
<path transform="matrix(1,0,0,-1,0,325.46803)" d="M53.503366 309.56718H49.503366" fill="#262626"/>
<path transform="matrix(1,0,0,-1,0,325.46803)" stroke-width="1" stroke-linecap="butt" stroke-linejoin="round" fill="none" stroke="#262626" d="M53.503366 309.56718H49.503366"/>
<text fill="#262626" xml:space="preserve" transform="matrix(0 -1 1 0 0 325.46803)" font-size="11.955168" font-family="CMR12"><tspan y="15.50218" x="134.44156 143.21665 148.41715 154.58602 161.07767 164.31752 168.93222 172.17208 176.71504 179.9549 185.80098 196.19463 203.99423 209.84032 213.08017 219.57183">AcquisitionValue</tspan></text>
<g clip-path="url(#clip_0)">
<path transform="matrix(1,0,0,-1,0,325.46803)" stroke-width="1.5" stroke-linecap="round" stroke-linejoin="round" fill="none" stroke="#f77189" d="M73.79427 291.58473 84.19987 305.66804 94.60546 292.9416 105.011058 294.19956 115.41665 279.06477 125.82224 275.9124 136.22785 264.80915 146.63344 275.00724 157.03903 225.22188 167.44463 300.38645 177.85022 287.41514 188.25582 235.30866 198.6614 225.11891 209.067 199.39279 219.4726 176.09601 229.87819 203.11582 240.28379 160.59699 250.68938 280.0224 261.09498 259.0666 271.50059 211.91657 281.90617 177.13982 292.31178 166.47692 302.71736 161.06943 313.12297 182.27689 323.52854 150.6454 333.93415 150.18521 344.33973 141.38413 354.74534 126.00972 365.1509 118.547939 375.55653 109.39456 385.9621 103.45303 396.3677 92.95074 406.7733 86.42122 417.1789 83.019649 427.58448 81.4941 437.99009 71.84341 448.39567 68.95605 458.80128 66.53239 469.20686 63.450704 479.61247 53.66802"/>
</g>
<path transform="matrix(1,0,0,-1,0,325.46803)" stroke-width="1.25" stroke-linecap="square" stroke-miterlimit="10" stroke-linejoin="miter" fill="none" stroke="#262626" d="M53.503366 41.068017V318.268"/>
<path transform="matrix(1,0,0,-1,0,325.46803)" stroke-width="1.25" stroke-linecap="square" stroke-miterlimit="10" stroke-linejoin="miter" fill="none" stroke="#262626" d="M499.90336 41.068017V318.268"/>
<path transform="matrix(1,0,0,-1,0,325.46803)" stroke-width="1.25" stroke-linecap="square" stroke-miterlimit="10" stroke-linejoin="miter" fill="none" stroke="#262626" d="M53.503366 41.068017H499.90336"/>
<path transform="matrix(1,0,0,-1,0,325.46803)" stroke-width="1.25" stroke-linecap="square" stroke-miterlimit="10" stroke-linejoin="miter" fill="none" stroke="#262626" d="M53.503366 318.268H499.90336"/>
</svg>
